HIERARCHY
ROOT hip
{
	OFFSET 0.000000 0.000000 0.000000 
	CHANNELS 6 Xposition Yposition Zposition Xrotation Zrotation Yrotation
	JOINT abdomen
	{
		OFFSET 0.000000 3.402643 0.000000 
		CHANNELS 3 Xrotation Zrotation Yrotation
		JOINT chest
		{
			OFFSET 0.000000 8.438565 -0.680529 
			CHANNELS 3 Xrotation Zrotation Yrotation
			JOINT neck
			{
				OFFSET 0.000000 10.207942 -0.272212 
				CHANNELS 3 Xrotation Zrotation Yrotation
				JOINT head
				{
					OFFSET 0.000000 3.130431 0.000000 
					CHANNELS 3 Xrotation Zrotation Yrotation
					End Site
					{
						OFFSET 0.000000 3.130435 0.000000 
					}
				}
			}
			JOINT lCollar
			{
				OFFSET 3.470700 6.669187 -0.816635 
				CHANNELS 3 Yrotation Zrotation Xrotation
				JOINT lShldr
				{
					OFFSET 3.198488 0.000000 0.000000 
					CHANNELS 3 Zrotation Yrotation Xrotation
					JOINT lForeArm
					{
						OFFSET 10.139888 0.000000 0.000000 
						CHANNELS 3 Yrotation Zrotation Xrotation
						JOINT lHand
						{
							OFFSET 8.370511 0.000000 0.000000 
							CHANNELS 3 Zrotation Yrotation Xrotation
							End Site
							{
								OFFSET 4.083176 0.000000 0.000000 
							}
						}
					}
				}
			}
			JOINT rCollar
			{
				OFFSET -3.470700 6.669187 -0.816635 
				CHANNELS 3 Yrotation Zrotation Xrotation
				JOINT rShldr
				{
					OFFSET -3.198488 0.000000 0.000000 
					CHANNELS 3 Zrotation Yrotation Xrotation
					JOINT rForeArm
					{
						OFFSET -10.139888 0.000000 0.000000 
						CHANNELS 3 Yrotation Zrotation Xrotation
						JOINT rHand
						{
							OFFSET -8.370511 0.000000 0.000000 
							CHANNELS 3 Zrotation Yrotation Xrotation
							End Site
							{
								OFFSET -4.083176 0.000000 0.000000 
							}
						}
					}
				}
			}
		}
	}
	JOINT lThigh
	{
		OFFSET 5.308129 -1.633274 1.361059 
		CHANNELS 3 Xrotation Zrotation Yrotation
		JOINT lShin
		{
			OFFSET -2.041588 -20.007561 0.000000 
			CHANNELS 3 Xrotation Zrotation Yrotation
			JOINT lFoot
			{
				OFFSET 0.000000 -19.190928 -1.224953 
				CHANNELS 3 Xrotation Yrotation Zrotation
				End Site
				{
					OFFSET 0.000000 -2.449906 4.627600 
				}
			}
		}
	}
	JOINT rThigh
	{
		OFFSET -5.308129 -1.633274 1.361059 
		CHANNELS 3 Xrotation Zrotation Yrotation
		JOINT rShin
		{
			OFFSET 2.041588 -20.007561 0.000000 
			CHANNELS 3 Xrotation Zrotation Yrotation
			JOINT rFoot
			{
				OFFSET 0.000000 -19.190928 -1.224953 
				CHANNELS 3 Xrotation Yrotation Zrotation
				End Site
				{
					OFFSET 0.000000 -2.449906 4.627600 
				}
			}
		}
	}
}
MOTION
Frames: 15
Frame Time: 0.016667
-1.112751 43.512592 0.665205 8.692050 -0.695050 -2.235270 -24.580400 0.427410 0.168715 19.111200 0.898152 0.172652 17.959400 2.468810 -2.638600 12.410900 5.296650 -1.043730 2.000000 -2.000000 0.000000 88.806396 168.897003 -4.430630 36.435902 -0.324840 0.081257 0.044954 -0.010139 -140.544998 -2.000000 2.000000 0.000000 -91.186699 -165.197006 -0.867501 -39.053101 0.321018 0.086141 -0.055258 -0.006832 -130.983994 -18.222858 1.474215 -9.978038 31.531380 2.659580 2.344887 -24.519331 8.333741 4.866023 -13.245523 -1.115703 1.146980 20.868708 -2.747067 -1.672009 -20.491255 -1.828784 -1.648975 
-1.116411 43.512592 0.658656 8.692030 -0.685397 -2.243560 -24.590200 0.427386 0.168663 19.101400 0.917673 0.162238 17.928699 2.405450 -2.653470 12.400700 5.267820 -1.048880 2.000000 -2.000000 0.000000 88.825897 168.839005 -4.381940 36.455502 -0.324812 0.081295 0.044973 -0.010440 -140.651993 -2.000000 2.000000 0.000000 -91.167198 -165.149002 -0.916450 -39.043400 0.321032 0.086123 -0.055278 -0.007022 -130.916000 -18.223234 1.466696 -9.977229 31.512650 2.653314 2.353274 -24.492521 8.377526 4.892901 -13.318736 -1.102038 1.190280 20.973476 -2.772003 -1.664992 -20.561434 -1.815809 -1.642769 
-1.121616 43.513493 0.647444 8.701780 -0.675726 -2.222670 -24.580400 0.415101 0.163634 19.101400 0.917673 0.162238 17.909800 2.405460 -2.665270 12.390700 5.258310 -1.051190 2.000000 -2.000000 0.000000 88.855202 168.837997 -4.342880 36.474998 -0.324785 0.081332 0.044982 -0.010576 -140.701004 -2.000000 2.000000 0.000000 -91.128098 -165.167999 -0.965230 -39.023800 0.321062 0.086087 -0.055296 -0.007185 -130.856995 -18.256060 1.477081 -9.907737 31.501612 2.664546 2.346837 -24.430672 8.348336 4.866656 -13.292249 -1.104878 1.231204 20.927757 -2.750355 -1.681892 -20.601665 -1.802784 -1.647047 
-1.124450 43.514648 0.640150 8.731080 -0.675673 -2.193720 -24.570700 0.417147 0.141337 19.140400 0.927451 0.152856 17.959999 2.468150 -2.648330 12.420600 5.286830 -1.044250 2.000000 -2.000000 0.000000 88.845398 168.858002 -4.362360 36.494499 -0.324757 0.081370 0.044982 -0.010576 -140.701004 -2.000000 2.000000 0.000000 -91.147697 -165.227005 -0.926023 -38.994499 0.321106 0.086033 -0.055290 -0.007131 -130.876999 -18.292080 1.488077 -9.877317 31.473444 2.653699 2.353995 -24.355492 8.331184 4.837505 -13.321558 -1.104745 1.229344 20.928154 -2.744017 -1.671059 -20.618282 -1.829963 -1.663926 
-1.125157 43.514267 0.637950 8.740810 -0.656351 -2.210390 -24.560900 0.413743 0.132246 19.169701 0.927463 0.153331 18.030399 2.529460 -2.639290 12.470100 5.315040 -1.045230 2.000000 -2.000000 0.000000 88.825897 168.828995 -4.342900 36.533600 -0.324702 0.081445 0.044997 -0.010794 -140.779007 -2.000000 2.000000 0.000000 -91.196503 -165.216995 -0.818625 -39.023800 0.321062 0.086087 -0.055247 -0.006723 -131.022995 -18.292234 1.468764 -9.865552 31.462593 2.662401 2.346897 -24.355078 8.328044 4.845430 -13.384115 -1.130836 1.178026 20.995182 -2.759115 -1.672188 -20.572414 -1.796588 -1.653842 
-1.126168 43.514908 0.636521 8.721250 -0.637080 -2.236500 -24.551201 0.426079 0.137385 19.179501 0.946992 0.153019 18.021000 2.557670 -2.631290 12.460600 5.334520 -1.043280 2.000000 -2.000000 0.000000 88.796600 168.789993 -4.313700 36.533600 -0.324702 0.081445 0.045008 -0.010958 -140.837997 -2.000000 2.000000 0.000000 -91.235497 -165.167999 -0.750387 -39.062901 0.321003 0.086159 -0.055197 -0.006233 -131.199005 -18.278776 1.444082 -9.922299 31.473873 2.653167 2.363564 -24.428307 8.331162 4.844198 -13.370725 -1.147834 1.150627 20.995249 -2.758553 -1.672083 -20.575054 -1.772520 -1.639331 
-1.128247 43.514908 0.634832 8.692000 -0.666090 -2.240610 -24.551300 0.445869 0.106925 19.189301 0.976285 0.142716 18.010799 2.520860 -2.644420 12.450600 5.325010 -1.045620 2.000000 -2.000000 0.000000 88.757500 168.759995 -4.343060 36.514000 -0.324729 0.081407 0.045004 -0.010904 -140.817993 -2.000000 2.000000 0.000000 -91.274597 -165.147995 -0.730904 -39.062901 0.321003 0.086159 -0.055189 -0.006152 -131.227997 -18.256151 1.475149 -9.907537 31.511505 2.663304 2.346344 -24.440865 8.321142 4.849921 -13.294850 -1.128769 1.164066 20.917730 -2.751831 -1.681826 -20.554802 -1.778193 -1.642300 
-1.131055 43.514648 0.632947 8.682300 -0.704722 -2.265930 -24.531900 0.472575 0.094880 19.218599 0.986059 0.142987 18.059601 2.528430 -2.636110 12.480200 5.334210 -1.041470 2.000000 -2.000000 0.000000 88.708702 168.779999 -4.421140 36.455502 -0.324812 0.081295 0.044989 -0.010685 -140.740005 -2.000000 2.000000 0.000000 -91.274597 -165.139008 -0.769990 -39.082401 0.320974 0.086195 -0.055214 -0.006397 -131.141006 -18.261568 1.528049 -9.892979 31.532877 2.649932 2.361853 -24.428495 8.362603 4.853309 -13.279330 -1.076713 1.162155 20.878805 -2.745036 -1.671514 -20.545502 -1.777854 -1.630654 
-1.132628 43.515163 0.632343 8.692110 -0.724011 -2.317830 -24.531900 0.488317 0.109113 19.247900 0.976308 0.153480 18.119301 2.562820 -2.627330 12.509800 5.343400 -1.047080 2.000000 -2.000000 0.000000 88.689201 168.800003 -4.518750 36.387100 -0.324909 0.081164 0.044975 -0.010467 -140.662003 -2.000000 2.000000 0.000000 -91.245300 -165.108994 -0.887250 -39.102001 0.320944 0.086232 -0.055244 -0.006696 -131.033005 -18.268196 1.553453 -9.875994 31.533335 2.643883 2.360548 -24.431009 8.379333 4.875447 -13.344852 -1.044068 1.214733 20.927450 -2.752834 -1.681846 -20.536728 -1.763927 -1.633254 
-1.134257 43.514648 0.631659 8.692110 -0.724011 -2.366660 -24.531900 0.488317 0.109113 19.267401 0.976315 0.153813 18.109501 2.516110 -2.653290 12.499600 5.324240 -1.060620 2.000000 -2.000000 0.000000 88.679398 168.789993 -4.606670 36.348000 -0.324965 0.081088 0.044964 -0.010303 -140.602997 -2.000000 2.000000 0.000000 -91.235497 -165.119003 -0.926288 -39.102001 0.320944 0.086232 -0.055261 -0.006859 -130.975006 -18.275503 1.568387 -9.857624 31.571299 2.654811 2.352782 -24.463844 8.370786 4.885506 -13.307964 -1.034948 1.236050 20.877352 -2.756653 -1.673524 -20.508841 -1.753916 -1.615635 
-1.136683 43.514267 0.631915 8.701910 -0.743298 -2.418570 -24.522200 0.506116 0.101073 19.306499 0.995857 0.154053 18.049700 2.425330 -2.689880 12.469600 5.286070 -1.069050 2.000000 -2.000000 0.000000 88.650200 168.809998 -4.674980 36.308998 -0.325020 0.081013 0.044957 -0.010194 -140.563995 -2.000000 2.000000 0.000000 -91.264801 -165.139008 -0.916474 -39.062901 0.321003 0.086159 -0.055258 -0.006832 -130.983994 -18.262642 1.595404 -9.841762 31.581303 2.652081 2.351892 -24.489689 8.385057 4.896522 -13.298429 -1.021148 1.226156 20.809866 -2.742085 -1.662315 -20.432793 -1.730989 -1.600062 
-1.137256 43.515163 0.632116 8.692200 -0.772278 -2.471700 -24.532000 0.523853 0.092896 19.316200 0.995860 0.154222 18.001301 2.454880 -2.686040 12.440300 5.296190 -1.070320 2.000000 -2.000000 0.000000 88.630600 168.791000 -4.743380 36.299198 -0.325034 0.080995 0.044950 -0.010085 -140.524994 -2.000000 2.000000 0.000000 -91.264801 -165.128998 -0.955561 -39.053101 0.321018 0.086141 -0.055253 -0.006777 -131.003998 -18.208815 1.652738 -9.831608 31.503765 2.641088 2.350125 -24.453238 8.398936 4.902886 -13.300454 -0.981088 1.214032 20.829666 -2.744355 -1.672131 -20.425070 -1.711402 -1.588055 
-1.136683 43.515427 0.630199 8.692220 -0.781931 -2.492710 -24.541800 0.532704 0.088768 19.286900 1.005610 0.153497 18.004400 2.583590 -2.663270 12.451200 5.363650 -1.058540 2.000000 -2.000000 0.000000 88.611099 168.781006 -4.792230 36.299198 -0.325034 0.080995 0.044945 -0.010003 -140.496002 -2.000000 2.000000 0.000000 -91.274597 -165.110001 -0.975140 -39.062901 0.321003 0.086159 -0.055236 -0.006614 -131.061996 -18.263433 1.649408 -9.779185 31.609272 2.665776 2.345321 -24.466228 8.392091 4.899284 -13.333389 -0.960039 1.240122 20.887257 -2.752978 -1.663005 -20.423027 -1.730496 -1.599551 
-1.136369 43.514000 0.629141 8.672670 -0.772318 -2.520270 -24.541901 0.545017 0.093856 19.277100 1.015370 0.162873 18.007700 2.683790 -2.659270 12.461700 5.402140 -1.071440 2.000000 -2.000000 0.000000 88.601303 168.770996 -4.762960 36.308998 -0.325020 0.081013 0.044954 -0.010139 -140.544998 -2.000000 2.000000 0.000000 -91.294098 -165.110001 -0.975140 -39.043400 0.321032 0.086123 -0.055222 -0.006478 -131.110992 -18.237823 1.656624 -9.713092 31.600183 2.661544 2.354065 -24.435976 8.361899 4.876674 -13.334271 -0.969384 1.260062 20.878609 -2.746590 -1.671771 -20.393847 -1.728034 -1.597411 
-1.135402 43.512840 0.630457 8.643370 -0.772378 -2.539400 -24.541800 0.542991 0.116200 19.286900 1.005610 0.173028 17.971300 2.691860 -2.699050 12.451800 5.402290 -1.082130 2.000000 -2.000000 0.000000 88.611099 168.761002 -4.694620 36.338299 -0.324978 0.081070 0.044968 -0.010358 -140.623001 -2.000000 2.000000 0.000000 -91.284302 -165.110001 -1.004440 -39.023800 0.321062 0.086087 -0.055222 -0.006478 -131.110992 -18.210245 1.655523 -9.734210 31.600281 2.660270 2.353723 -24.486034 8.367105 4.884975 -13.323955 -0.966458 1.250827 20.897091 -2.756209 -1.673205 -20.377371 -1.698472 -1.579199 
